<svg xmlns="http://www.w3.org/2000/svg" xmlns:xlink="http://www.w3.org/1999/xlink" width="500" zoomAndPan="magnify" viewBox="0 0 375 374.999991" height="500" preserveAspectRatio="xMidYMid meet" version="1.0"><rect x="-37.5" width="450" fill="#1e1e1e" y="-37.499999" height="449.999989" fill-opacity="1"/><path fill="#ffffff" d="M 133.710938 193.367188 C 132.882812 193.757812 131.359375 193.933594 130.136719 193.933594 C 120.859375 193.933594 111.796875 184.828125 111.796875 173.71875 C 111.796875 170.234375 113.28125 168.75 115.195312 168.75 C 118.289062 168.75 121.777344 171.667969 128.398438 184.609375 L 128.441406 184.609375 L 132.277344 169.40625 C 129.09375 167.746094 125.347656 166.746094 120.863281 166.746094 C 111.320312 166.746094 105.046875 172.886719 105.046875 182.257812 C 105.046875 192.539062 111.628906 199.859375 121.648438 199.859375 C 126.917969 199.859375 131.664062 197.15625 133.757812 193.410156 L 133.714844 193.367188 Z M 133.710938 193.367188 " fill-opacity="1" fill-rule="nonzero"/><path fill="#ffffff" d="M 151.007812 166.75 L 148.742188 166.75 L 134.886719 198.289062 L 133.101562 198.289062 L 133.101562 198.988281 L 142.726562 198.988281 L 142.726562 198.289062 L 138.242188 198.289062 L 140.902344 190.101562 L 150.921875 190.101562 L 154.363281 198.289062 L 150.789062 198.289062 L 150.789062 198.988281 L 166.824219 198.988281 L 166.824219 198.289062 L 164.820312 198.289062 Z M 141.121094 189.316406 L 145.214844 176.683594 L 150.574219 189.316406 Z M 141.121094 189.316406 " fill-opacity="1" fill-rule="nonzero"/><path fill="#ffffff" d="M 198 176.988281 C 198 171.582031 193.078125 167.621094 182.359375 167.621094 L 168.199219 167.621094 L 172.078125 169.972656 L 172.078125 198.289062 L 168.59375 198.289062 L 168.59375 198.988281 L 185.585938 198.988281 L 185.585938 198.289062 L 181.664062 198.289062 L 181.664062 187.269531 C 192.121094 187.179688 198 183.433594 198 176.988281 Z M 181.664062 168.316406 L 182.144531 168.316406 C 185.628906 168.316406 187.980469 171.324219 187.980469 177.03125 C 187.980469 182.738281 185.453125 186.527344 181.664062 186.574219 Z M 181.664062 168.316406 " fill-opacity="1" fill-rule="nonzero"/><path fill="#ffffff" d="M 214.753906 167.621094 L 197.414062 167.621094 L 201.289062 169.972656 L 201.289062 198.289062 L 197.804688 198.289062 L 197.804688 198.988281 L 214.359375 198.988281 L 214.359375 198.289062 L 210.875 198.289062 L 210.875 169.972656 Z M 214.753906 167.621094 " fill-opacity="1" fill-rule="nonzero"/><path fill="#ffffff" d="M 248.214844 179.90625 L 248.261719 179.90625 L 248.261719 167.621094 L 216.9375 167.621094 L 216.9375 179.90625 L 216.980469 179.90625 C 220.246094 172.410156 223.910156 168.84375 227.785156 168.363281 L 227.785156 198.289062 L 223.863281 198.289062 L 223.863281 198.988281 L 241.292969 198.988281 L 241.292969 198.289062 L 237.371094 198.289062 L 237.371094 168.363281 C 241.292969 168.84375 244.953125 172.410156 248.21875 179.90625 Z M 248.214844 179.90625 " fill-opacity="1" fill-rule="nonzero"/><path fill="#ffffff" d="M 261.308594 166.75 L 259.042969 166.75 L 245.1875 198.289062 L 243.402344 198.289062 L 243.402344 198.988281 L 253.03125 198.988281 L 253.03125 198.289062 L 248.542969 198.289062 L 251.203125 190.101562 L 261.222656 190.101562 L 264.664062 198.289062 L 261.09375 198.289062 L 261.09375 198.988281 L 277.125 198.988281 L 277.125 198.289062 L 275.121094 198.289062 Z M 251.421875 189.316406 L 255.515625 176.683594 L 260.875 189.316406 Z M 251.421875 189.316406 " fill-opacity="1" fill-rule="nonzero"/><path fill="#ffffff" d="M 306.242188 185.746094 C 302.933594 194.105469 298.09375 198.289062 292.734375 198.289062 L 292.386719 198.289062 L 292.386719 169.972656 L 296.261719 167.621094 L 278.925781 167.621094 L 282.800781 169.972656 L 282.800781 198.289062 L 279.316406 198.289062 L 279.316406 198.988281 L 306.28125 198.988281 L 306.28125 185.746094 L 306.238281 185.746094 Z M 306.242188 185.746094 " fill-opacity="1" fill-rule="nonzero"/><path fill="#ffffff" d="M 237.453125 209.402344 L 72.699219 209.402344 L 70.824219 207.523438 L 68.636719 209.710938 L 70.824219 211.894531 L 72.699219 210.019531 L 237.453125 210.019531 Z M 237.453125 209.402344 " fill-opacity="1" fill-rule="nonzero"/><path fill="#ffffff" d="M 72.699219 157.207031 L 302.226562 157.207031 L 304.101562 159.082031 L 306.285156 156.898438 L 304.101562 154.710938 L 302.226562 156.585938 L 72.699219 156.585938 L 70.824219 154.710938 L 68.636719 156.898438 L 70.824219 159.082031 Z M 72.699219 157.207031 " fill-opacity="1" fill-rule="nonzero"/><path fill="#ffff00" d="M 241.542969 218.425781 L 263.152344 218.425781 L 263.152344 220.289062 L 241.542969 220.289062 Z M 241.542969 218.425781 " fill-opacity="1" fill-rule="nonzero"/><path fill="#006bcb" d="M 263.148438 218.425781 L 284.753906 218.425781 L 284.753906 220.289062 L 263.148438 220.289062 Z M 263.148438 218.425781 " fill-opacity="1" fill-rule="nonzero"/><path fill="#ff0000" d="M 284.753906 218.425781 L 306.363281 218.425781 L 306.363281 220.289062 L 284.753906 220.289062 Z M 284.753906 218.425781 " fill-opacity="1" fill-rule="nonzero"/><path fill="#ffffff" d="M 245.644531 205.996094 C 245.445312 205.679688 245.160156 205.441406 244.796875 205.277344 C 244.433594 205.113281 244.054688 205.03125 243.660156 205.023438 C 243.308594 205.011719 242.980469 205.074219 242.664062 205.199219 C 242.347656 205.324219 242.097656 205.527344 241.914062 205.796875 C 241.753906 206.015625 241.648438 206.269531 241.601562 206.5625 C 241.554688 206.855469 241.535156 207.132812 241.542969 207.398438 L 241.542969 211.839844 C 241.535156 212.097656 241.554688 212.371094 241.601562 212.667969 C 241.648438 212.964844 241.753906 213.222656 241.914062 213.429688 C 242.101562 213.710938 242.371094 213.914062 242.699219 214.039062 C 243.035156 214.164062 243.382812 214.21875 243.75 214.203125 C 244.136719 214.1875 244.5 214.097656 244.839844 213.941406 C 245.183594 213.785156 245.449219 213.550781 245.640625 213.246094 C 245.765625 213.054688 245.851562 212.851562 245.898438 212.648438 C 245.945312 212.445312 245.96875 212.230469 245.96875 212.011719 L 245.96875 211.339844 C 245.980469 211.148438 245.914062 211 245.777344 210.894531 C 245.640625 210.789062 245.492188 210.734375 245.324219 210.722656 C 245.15625 210.710938 245.003906 210.761719 244.863281 210.863281 C 244.726562 210.960938 244.652344 211.121094 244.652344 211.339844 L 244.640625 211.984375 C 244.640625 212.261719 244.546875 212.476562 244.363281 212.621094 C 244.179688 212.765625 243.976562 212.847656 243.761719 212.863281 C 243.558594 212.878906 243.398438 212.863281 243.28125 212.804688 C 243.160156 212.746094 243.066406 212.671875 243.003906 212.578125 C 242.9375 212.480469 242.894531 212.367188 242.871094 212.230469 C 242.847656 212.09375 242.839844 211.945312 242.839844 211.789062 C 242.828125 211.421875 242.824219 211.050781 242.824219 210.671875 L 242.824219 208.324219 C 242.824219 207.925781 242.828125 207.527344 242.839844 207.121094 C 242.839844 206.859375 242.933594 206.664062 243.128906 206.53125 C 243.320312 206.398438 243.53125 206.34375 243.761719 206.363281 C 243.976562 206.378906 244.179688 206.460938 244.363281 206.605469 C 244.546875 206.746094 244.644531 206.960938 244.652344 207.242188 L 244.652344 207.886719 C 244.652344 208.113281 244.722656 208.277344 244.863281 208.378906 C 245.007812 208.484375 245.15625 208.527344 245.324219 208.515625 C 245.492188 208.507812 245.640625 208.449219 245.777344 208.339844 C 245.914062 208.230469 245.976562 208.082031 245.96875 207.886719 L 245.96875 207.214844 C 245.96875 206.996094 245.945312 206.78125 245.898438 206.578125 C 245.851562 206.371094 245.765625 206.175781 245.640625 205.992188 Z M 245.644531 205.996094 " fill-opacity="1" fill-rule="nonzero"/><path fill="#ffffff" d="M 253.171875 210.566406 L 252.054688 205.835938 C 252.011719 205.578125 251.910156 205.382812 251.757812 205.246094 C 251.605469 205.105469 251.4375 205.03125 251.253906 205.019531 C 251.070312 205.007812 250.886719 205.074219 250.714844 205.210938 C 250.539062 205.347656 250.410156 205.558594 250.332031 205.847656 L 248.53125 213.457031 C 248.488281 213.667969 248.515625 213.835938 248.613281 213.960938 C 248.707031 214.085938 248.828125 214.167969 248.972656 214.203125 C 249.117188 214.238281 249.261719 214.222656 249.40625 214.164062 C 249.550781 214.105469 249.644531 213.984375 249.6875 213.8125 L 249.925781 213.023438 C 249.984375 212.8125 250.082031 212.675781 250.214844 212.617188 C 250.347656 212.558594 250.476562 212.53125 250.609375 212.539062 L 251.925781 212.539062 C 252.097656 212.53125 252.234375 212.582031 252.332031 212.691406 C 252.425781 212.800781 252.488281 212.925781 252.515625 213.066406 L 252.632812 213.683594 C 252.667969 213.898438 252.761719 214.054688 252.910156 214.136719 C 253.058594 214.21875 253.210938 214.246094 253.363281 214.214844 C 253.515625 214.183594 253.648438 214.105469 253.753906 213.980469 C 253.859375 213.859375 253.890625 213.707031 253.859375 213.523438 L 253.175781 210.566406 Z M 251.925781 210.964844 C 251.878906 211.066406 251.78125 211.113281 251.621094 211.113281 L 250.871094 211.113281 C 250.714844 211.113281 250.613281 211.066406 250.5625 210.972656 C 250.511719 210.875 250.503906 210.765625 250.53125 210.640625 C 250.597656 210.300781 250.667969 209.960938 250.726562 209.613281 C 250.789062 209.273438 250.855469 208.925781 250.925781 208.578125 C 250.953125 208.472656 250.996094 208.398438 251.058594 208.351562 C 251.121094 208.300781 251.179688 208.28125 251.238281 208.292969 C 251.292969 208.300781 251.347656 208.328125 251.398438 208.378906 C 251.449219 208.425781 251.488281 208.492188 251.503906 208.582031 L 251.953125 210.644531 C 251.980469 210.757812 251.96875 210.867188 251.925781 210.964844 Z M 251.925781 210.964844 " fill-opacity="1" fill-rule="nonzero"/><path fill="#ffffff" d="M 260.492188 211.421875 C 260.414062 211.28125 260.363281 211.148438 260.34375 211.027344 C 260.320312 210.902344 260.320312 210.789062 260.34375 210.679688 C 260.363281 210.570312 260.398438 210.46875 260.441406 210.375 C 260.484375 210.28125 260.53125 210.199219 260.585938 210.121094 C 260.71875 209.917969 260.824219 209.730469 260.917969 209.558594 C 261.011719 209.390625 261.085938 209.214844 261.144531 209.042969 C 261.199219 208.867188 261.242188 208.683594 261.269531 208.488281 C 261.296875 208.300781 261.304688 208.074219 261.296875 207.816406 C 261.285156 207.46875 261.238281 207.121094 261.148438 206.785156 C 261.054688 206.449219 260.925781 206.148438 260.757812 205.886719 C 260.589844 205.621094 260.390625 205.410156 260.15625 205.246094 C 259.917969 205.085938 259.648438 205.003906 259.351562 205.003906 L 257.433594 205.003906 C 257.34375 204.996094 257.257812 205.011719 257.164062 205.054688 C 257.074219 205.09375 256.988281 205.148438 256.910156 205.21875 C 256.832031 205.285156 256.765625 205.375 256.710938 205.480469 C 256.660156 205.585938 256.632812 205.699219 256.632812 205.820312 L 256.632812 209.617188 L 256.648438 213.523438 C 256.648438 213.75 256.710938 213.921875 256.84375 214.03125 C 256.976562 214.144531 257.121094 214.203125 257.277344 214.203125 C 257.433594 214.203125 257.582031 214.148438 257.710938 214.039062 C 257.84375 213.929688 257.90625 213.765625 257.90625 213.546875 L 257.90625 211.546875 C 257.90625 211.375 257.949219 211.234375 258.035156 211.136719 C 258.121094 211.03125 258.21875 210.972656 258.335938 210.949219 C 258.453125 210.929688 258.574219 210.949219 258.683594 211.003906 C 258.796875 211.0625 258.890625 211.160156 258.960938 211.300781 L 260.15625 213.8125 C 260.253906 214.011719 260.386719 214.136719 260.554688 214.179688 C 260.71875 214.222656 260.875 214.214844 261.019531 214.144531 C 261.164062 214.082031 261.277344 213.96875 261.347656 213.8125 C 261.421875 213.65625 261.414062 213.476562 261.3125 213.285156 L 260.5 211.421875 Z M 260.023438 208.367188 C 259.984375 208.554688 259.921875 208.726562 259.839844 208.871094 C 259.757812 209.023438 259.65625 209.140625 259.535156 209.234375 C 259.410156 209.324219 259.269531 209.371094 259.101562 209.371094 L 258.5625 209.371094 C 258.378906 209.386719 258.222656 209.332031 258.09375 209.207031 C 257.96875 209.078125 257.90625 208.933594 257.90625 208.765625 L 257.90625 206.902344 C 257.914062 206.699219 257.984375 206.542969 258.117188 206.433594 C 258.246094 206.324219 258.386719 206.269531 258.535156 206.269531 L 258.941406 206.269531 C 259.125 206.269531 259.289062 206.316406 259.429688 206.402344 C 259.566406 206.492188 259.683594 206.605469 259.777344 206.746094 C 259.867188 206.882812 259.9375 207.042969 259.988281 207.222656 C 260.035156 207.402344 260.0625 207.585938 260.074219 207.78125 C 260.078125 207.980469 260.066406 208.175781 260.023438 208.367188 Z M 260.023438 208.367188 " fill-opacity="1" fill-rule="nonzero"/><path fill="#ffffff" d="M 268.074219 205.035156 C 267.917969 205.035156 267.769531 205.09375 267.632812 205.207031 C 267.496094 205.320312 267.429688 205.488281 267.429688 205.703125 L 267.429688 209.714844 C 267.429688 209.742188 267.417969 209.765625 267.394531 209.792969 C 267.375 209.820312 267.347656 209.839844 267.316406 209.851562 C 267.285156 209.863281 267.253906 209.863281 267.210938 209.851562 C 267.171875 209.835938 267.132812 209.800781 267.097656 209.738281 C 266.976562 209.425781 266.84375 209.082031 266.699219 208.71875 C 266.558594 208.351562 266.40625 207.980469 266.261719 207.601562 C 266.109375 207.21875 265.964844 206.847656 265.8125 206.480469 C 265.664062 206.121094 265.527344 205.78125 265.40625 205.460938 C 265.335938 205.277344 265.234375 205.152344 265.09375 205.082031 C 264.953125 205.007812 264.816406 204.988281 264.675781 205.015625 C 264.535156 205.042969 264.414062 205.113281 264.3125 205.226562 C 264.210938 205.339844 264.164062 205.492188 264.164062 205.6875 L 264.164062 213.546875 C 264.164062 213.773438 264.230469 213.945312 264.367188 214.058594 C 264.503906 214.167969 264.652344 214.226562 264.808594 214.226562 C 264.964844 214.226562 265.113281 214.167969 265.242188 214.058594 C 265.375 213.945312 265.4375 213.777344 265.4375 213.554688 L 265.4375 209.824219 C 265.4375 209.792969 265.449219 209.753906 265.472656 209.714844 C 265.492188 209.675781 265.523438 209.648438 265.558594 209.636719 C 265.59375 209.621094 265.628906 209.625 265.671875 209.648438 C 265.710938 209.667969 265.742188 209.71875 265.769531 209.800781 L 267.554688 213.738281 C 267.628906 213.90625 267.726562 214.03125 267.859375 214.109375 C 267.992188 214.1875 268.117188 214.21875 268.246094 214.207031 C 268.375 214.191406 268.484375 214.136719 268.574219 214.03125 C 268.667969 213.921875 268.714844 213.765625 268.714844 213.554688 L 268.714844 205.683594 C 268.714844 205.464844 268.648438 205.300781 268.515625 205.191406 C 268.382812 205.082031 268.242188 205.027344 268.085938 205.027344 Z M 268.074219 205.035156 " fill-opacity="1" fill-rule="nonzero"/><path fill="#ffffff" d="M 272.152344 204.996094 C 271.992188 204.996094 271.839844 205.050781 271.710938 205.160156 C 271.578125 205.269531 271.511719 205.433594 271.511719 205.664062 L 271.511719 213.523438 C 271.511719 213.75 271.578125 213.921875 271.710938 214.03125 C 271.84375 214.144531 271.992188 214.203125 272.152344 214.203125 C 272.3125 214.203125 272.460938 214.144531 272.589844 214.03125 C 272.71875 213.921875 272.789062 213.753906 272.789062 213.53125 L 272.789062 205.648438 C 272.789062 205.433594 272.722656 205.269531 272.589844 205.15625 C 272.457031 205.042969 272.3125 204.992188 272.152344 204.992188 Z M 272.152344 204.996094 " fill-opacity="1" fill-rule="nonzero"/><path fill="#ffffff" d="M 279.730469 205.996094 C 279.527344 205.679688 279.246094 205.441406 278.878906 205.277344 C 278.515625 205.113281 278.136719 205.03125 277.746094 205.023438 C 277.394531 205.011719 277.0625 205.074219 276.746094 205.199219 C 276.433594 205.324219 276.179688 205.527344 275.996094 205.796875 C 275.839844 206.015625 275.734375 206.269531 275.6875 206.5625 C 275.636719 206.855469 275.617188 207.132812 275.628906 207.398438 L 275.628906 211.839844 C 275.617188 212.097656 275.636719 212.371094 275.6875 212.667969 C 275.734375 212.964844 275.835938 213.222656 275.996094 213.429688 C 276.1875 213.710938 276.453125 213.914062 276.785156 214.039062 C 277.117188 214.164062 277.464844 214.21875 277.835938 214.203125 C 278.21875 214.1875 278.585938 214.097656 278.925781 213.941406 C 279.265625 213.785156 279.53125 213.550781 279.726562 213.246094 C 279.847656 213.054688 279.933594 212.851562 279.980469 212.648438 C 280.03125 212.445312 280.054688 212.230469 280.054688 212.011719 L 280.054688 211.339844 C 280.0625 211.148438 280 211 279.863281 210.894531 C 279.726562 210.789062 279.574219 210.734375 279.410156 210.722656 C 279.242188 210.710938 279.089844 210.761719 278.949219 210.863281 C 278.808594 210.960938 278.738281 211.121094 278.738281 211.339844 L 278.722656 211.984375 C 278.722656 212.261719 278.632812 212.476562 278.449219 212.621094 C 278.261719 212.765625 278.0625 212.847656 277.84375 212.863281 C 277.644531 212.878906 277.484375 212.863281 277.363281 212.804688 C 277.246094 212.746094 277.152344 212.671875 277.085938 212.578125 C 277.023438 212.480469 276.976562 212.367188 276.953125 212.230469 C 276.929688 212.09375 276.925781 211.945312 276.925781 211.789062 C 276.914062 211.421875 276.910156 211.050781 276.910156 210.671875 L 276.910156 208.324219 C 276.910156 207.925781 276.914062 207.527344 276.925781 207.121094 C 276.925781 206.859375 277.019531 206.664062 277.214844 206.53125 C 277.40625 206.398438 277.617188 206.34375 277.84375 206.363281 C 278.0625 206.378906 278.261719 206.460938 278.449219 206.605469 C 278.632812 206.746094 278.726562 206.960938 278.738281 207.242188 L 278.738281 207.886719 C 278.738281 208.113281 278.804688 208.277344 278.949219 208.378906 C 279.09375 208.484375 279.242188 208.527344 279.410156 208.515625 C 279.574219 208.507812 279.726562 208.449219 279.863281 208.339844 C 280 208.230469 280.058594 208.082031 280.054688 207.886719 L 280.054688 207.214844 C 280.054688 206.996094 280.03125 206.78125 279.980469 206.578125 C 279.933594 206.371094 279.847656 206.175781 279.726562 205.992188 Z M 279.730469 205.996094 " fill-opacity="1" fill-rule="nonzero"/><path fill="#ffffff" d="M 284.261719 206.40625 C 284.394531 206.316406 284.535156 206.265625 284.691406 206.265625 L 286.074219 206.265625 C 286.257812 206.257812 286.398438 206.183594 286.492188 206.050781 C 286.589844 205.914062 286.636719 205.765625 286.636719 205.609375 C 286.636719 205.453125 286.59375 205.308594 286.5 205.183594 C 286.40625 205.058594 286.265625 204.992188 286.074219 204.992188 L 283.59375 204.992188 C 283.363281 204.980469 283.175781 205.027344 283.027344 205.125 C 282.875 205.21875 282.800781 205.417969 282.800781 205.714844 C 282.789062 206.3125 282.789062 206.90625 282.789062 207.5 L 282.789062 213.269531 C 282.789062 213.382812 282.792969 213.496094 282.808594 213.601562 C 282.820312 213.710938 282.855469 213.8125 282.90625 213.898438 C 282.957031 213.988281 283.039062 214.058594 283.140625 214.113281 C 283.246094 214.164062 283.390625 214.191406 283.574219 214.191406 L 286.058594 214.191406 C 286.246094 214.179688 286.394531 214.109375 286.488281 213.972656 C 286.585938 213.835938 286.632812 213.6875 286.632812 213.53125 C 286.632812 213.375 286.589844 213.230469 286.496094 213.105469 C 286.40625 212.980469 286.261719 212.914062 286.070312 212.914062 L 284.652344 212.914062 C 284.398438 212.914062 284.238281 212.839844 284.167969 212.6875 C 284.097656 212.53125 284.0625 212.371094 284.0625 212.207031 C 284.0625 211.949219 284.066406 211.703125 284.074219 211.460938 C 284.085938 211.21875 284.078125 210.976562 284.0625 210.734375 C 284.050781 210.53125 284.097656 210.386719 284.1875 210.308594 C 284.28125 210.222656 284.386719 210.179688 284.507812 210.179688 L 285.601562 210.179688 C 285.785156 210.179688 285.925781 210.113281 286.019531 209.976562 C 286.113281 209.839844 286.164062 209.691406 286.164062 209.535156 C 286.164062 209.378906 286.113281 209.238281 286.019531 209.109375 C 285.925781 208.984375 285.777344 208.917969 285.585938 208.917969 L 284.535156 208.917969 C 284.371094 208.929688 284.246094 208.875 284.167969 208.761719 C 284.089844 208.648438 284.054688 208.503906 284.0625 208.328125 L 284.0625 206.84375 C 284.0625 206.640625 284.128906 206.496094 284.261719 206.402344 Z M 284.261719 206.40625 " fill-opacity="1" fill-rule="nonzero"/><path fill="#ffffff" d="M 293.261719 211.421875 C 293.183594 211.28125 293.128906 211.148438 293.109375 211.027344 C 293.089844 210.902344 293.089844 210.789062 293.109375 210.679688 C 293.128906 210.570312 293.164062 210.46875 293.210938 210.375 C 293.253906 210.28125 293.300781 210.199219 293.351562 210.121094 C 293.484375 209.917969 293.59375 209.730469 293.6875 209.558594 C 293.777344 209.390625 293.851562 209.214844 293.910156 209.042969 C 293.96875 208.867188 294.011719 208.683594 294.039062 208.488281 C 294.066406 208.300781 294.070312 208.074219 294.066406 207.816406 C 294.054688 207.46875 294.007812 207.121094 293.914062 206.785156 C 293.824219 206.449219 293.691406 206.148438 293.527344 205.886719 C 293.359375 205.621094 293.15625 205.410156 292.921875 205.246094 C 292.6875 205.085938 292.417969 205.003906 292.121094 205.003906 L 290.203125 205.003906 C 290.113281 204.996094 290.023438 205.011719 289.933594 205.054688 C 289.839844 205.09375 289.753906 205.148438 289.675781 205.21875 C 289.597656 205.285156 289.535156 205.375 289.480469 205.480469 C 289.429688 205.585938 289.402344 205.699219 289.402344 205.820312 L 289.402344 209.617188 L 289.414062 213.523438 C 289.414062 213.75 289.480469 213.921875 289.613281 214.03125 C 289.746094 214.144531 289.886719 214.203125 290.046875 214.203125 C 290.203125 214.203125 290.347656 214.148438 290.476562 214.039062 C 290.613281 213.929688 290.675781 213.765625 290.675781 213.546875 L 290.675781 211.546875 C 290.675781 211.375 290.71875 211.234375 290.800781 211.136719 C 290.886719 211.03125 290.988281 210.972656 291.105469 210.949219 C 291.222656 210.929688 291.339844 210.949219 291.453125 211.003906 C 291.566406 211.0625 291.65625 211.160156 291.730469 211.300781 L 292.925781 213.8125 C 293.023438 214.011719 293.15625 214.136719 293.320312 214.179688 C 293.488281 214.222656 293.640625 214.214844 293.789062 214.144531 C 293.933594 214.082031 294.042969 213.96875 294.117188 213.8125 C 294.191406 213.65625 294.179688 213.476562 294.082031 213.285156 L 293.265625 211.421875 Z M 292.792969 208.367188 C 292.753906 208.554688 292.691406 208.726562 292.609375 208.871094 C 292.527344 209.023438 292.425781 209.140625 292.300781 209.234375 C 292.179688 209.324219 292.035156 209.371094 291.871094 209.371094 L 291.332031 209.371094 C 291.148438 209.386719 290.988281 209.332031 290.863281 209.207031 C 290.738281 209.078125 290.671875 208.933594 290.671875 208.765625 L 290.671875 206.902344 C 290.683594 206.699219 290.75 206.542969 290.882812 206.433594 C 291.011719 206.324219 291.152344 206.269531 291.304688 206.269531 L 291.710938 206.269531 C 291.894531 206.269531 292.058594 206.316406 292.195312 206.402344 C 292.335938 206.492188 292.453125 206.605469 292.542969 206.746094 C 292.636719 206.882812 292.703125 207.042969 292.753906 207.222656 C 292.804688 207.402344 292.832031 207.585938 292.839844 207.78125 C 292.847656 207.980469 292.835938 208.175781 292.792969 208.367188 Z M 292.792969 208.367188 " fill-opacity="1" fill-rule="nonzero"/><path fill="#ffffff" d="M 298.445312 202.324219 C 298.335938 202.242188 298.210938 202.195312 298.0625 202.195312 C 297.917969 202.195312 297.792969 202.273438 297.6875 202.421875 L 296.992188 203.328125 C 296.898438 203.449219 296.875 203.578125 296.921875 203.710938 C 296.96875 203.84375 297.050781 203.949219 297.164062 204.03125 C 297.277344 204.113281 297.40625 204.15625 297.550781 204.15625 C 297.699219 204.15625 297.820312 204.082031 297.925781 203.933594 L 298.609375 203.023438 C 298.699219 202.902344 298.71875 202.777344 298.675781 202.644531 C 298.628906 202.511719 298.554688 202.40625 298.445312 202.324219 Z M 298.445312 202.324219 " fill-opacity="1" fill-rule="nonzero"/><path fill="#ffffff" d="M 297.539062 204.996094 C 297.375 204.996094 297.226562 205.050781 297.097656 205.160156 C 296.964844 205.269531 296.902344 205.433594 296.902344 205.664062 L 296.902344 213.523438 C 296.902344 213.75 296.964844 213.921875 297.097656 214.03125 C 297.230469 214.144531 297.378906 214.203125 297.539062 214.203125 C 297.699219 214.203125 297.847656 214.144531 297.976562 214.03125 C 298.109375 213.921875 298.175781 213.753906 298.175781 213.53125 L 298.175781 205.648438 C 298.175781 205.433594 298.113281 205.269531 297.976562 205.15625 C 297.84375 205.042969 297.699219 204.992188 297.539062 204.992188 Z M 297.539062 204.996094 " fill-opacity="1" fill-rule="nonzero"/><path fill="#ffffff" d="M 306.347656 213.523438 L 305.664062 210.566406 L 304.546875 205.835938 C 304.503906 205.578125 304.40625 205.382812 304.25 205.246094 C 304.097656 205.105469 303.929688 205.03125 303.746094 205.019531 C 303.5625 205.007812 303.382812 205.074219 303.207031 205.210938 C 303.03125 205.347656 302.90625 205.558594 302.824219 205.847656 L 301.027344 213.457031 C 300.980469 213.667969 301.007812 213.835938 301.105469 213.960938 C 301.199219 214.085938 301.324219 214.167969 301.464844 214.203125 C 301.609375 214.238281 301.753906 214.222656 301.898438 214.164062 C 302.042969 214.105469 302.136719 213.984375 302.183594 213.8125 L 302.417969 213.023438 C 302.476562 212.8125 302.574219 212.675781 302.707031 212.617188 C 302.839844 212.558594 302.96875 212.53125 303.101562 212.539062 L 304.417969 212.539062 C 304.59375 212.53125 304.726562 212.582031 304.824219 212.691406 C 304.917969 212.800781 304.980469 212.925781 305.007812 213.066406 L 305.128906 213.683594 C 305.160156 213.898438 305.253906 214.054688 305.402344 214.136719 C 305.554688 214.21875 305.703125 214.246094 305.855469 214.214844 C 306.011719 214.183594 306.140625 214.105469 306.246094 213.980469 C 306.351562 213.859375 306.386719 213.707031 306.351562 213.523438 Z M 304.417969 210.964844 C 304.375 211.066406 304.273438 211.113281 304.113281 211.113281 L 303.363281 211.113281 C 303.207031 211.113281 303.105469 211.066406 303.054688 210.972656 C 303.007812 210.875 302.996094 210.765625 303.023438 210.640625 C 303.09375 210.300781 303.160156 209.960938 303.222656 209.613281 C 303.28125 209.273438 303.347656 208.925781 303.417969 208.578125 C 303.445312 208.472656 303.492188 208.398438 303.550781 208.351562 C 303.613281 208.300781 303.675781 208.28125 303.730469 208.292969 C 303.789062 208.300781 303.84375 208.328125 303.894531 208.378906 C 303.945312 208.425781 303.980469 208.492188 304 208.582031 L 304.445312 210.644531 C 304.472656 210.757812 304.460938 210.867188 304.417969 210.964844 Z M 304.417969 210.964844 " fill-opacity="1" fill-rule="nonzero"/><path fill="#ffffff" d="M 102.183594 196.898438 C 101.792969 196.992188 101.875 197.203125 101.378906 198.007812 C 98.527344 202.664062 92.894531 199.492188 87.113281 196.269531 C 82.3125 193.59375 79.804688 192.070312 75.074219 192.253906 C 78.550781 190.5 80.839844 186.253906 82.257812 182.703125 C 87.667969 179.558594 90.832031 175.695312 92.6875 173.058594 C 94.605469 170.332031 95.898438 166.828125 94.597656 165.234375 C 93.71875 164.15625 89.816406 161.933594 84.777344 170.34375 C 83.558594 172.378906 83.082031 173.691406 80.769531 179.101562 C 80.097656 180.746094 79.601562 181.914062 79.535156 181.980469 C 79.433594 182.113281 73.628906 182.636719 75.765625 177.789062 C 76.21875 176.761719 76.875 175.941406 77.714844 175.003906 C 78.621094 174.066406 78.65625 174 78.65625 173.53125 C 78.65625 172.925781 78.148438 172.457031 77.546875 172.457031 C 76.570312 172.457031 74.796875 174.335938 73.753906 176.316406 C 71.445312 180.703125 73.476562 183.808594 78.980469 183.410156 C 78.667969 184.507812 74.546875 192.085938 70.910156 192.085938 C 70.066406 192.085938 68.960938 191.53125 68.710938 192.636719 C 68.527344 193.457031 68.707031 194.785156 70.15625 194.359375 C 81.722656 190.964844 84.976562 202.664062 95.285156 202.664062 C 101.117188 202.664062 102.589844 199.199219 102.792969 197.804688 C 102.886719 197.175781 102.710938 196.78125 102.191406 196.898438 Z M 86.773438 170.945312 C 89.488281 165.191406 92.5 165.113281 93.296875 165.429688 C 94.894531 166.066406 94.027344 168.898438 93.289062 170.371094 C 92.25 172.519531 87.992188 178.25 82.910156 181.148438 C 83.410156 179.988281 85.332031 174.007812 86.777344 170.941406 Z M 86.773438 170.945312 " fill-opacity="1" fill-rule="nonzero"/><path fill="#ffffff" d="M 94.007812 183.207031 C 94.007812 182.535156 93.738281 181.496094 92.597656 181.496094 C 89.171875 181.496094 85.175781 187.976562 85.175781 191.398438 C 85.175781 192.40625 85.679688 193.816406 87.257812 193.816406 C 88.46875 193.816406 90.3125 191.332031 91.621094 189.183594 C 91.351562 189.957031 91.152344 190.726562 91.152344 191.566406 C 91.152344 192.335938 91.554688 193.714844 92.933594 193.714844 C 95.148438 193.714844 97.835938 188.308594 98.839844 186.195312 L 98.839844 186.09375 C 98.839844 185.960938 98.742188 185.824219 98.605469 185.824219 C 98.503906 185.824219 98.4375 185.890625 98.371094 185.957031 C 97.460938 187.398438 95.414062 191.328125 94.171875 191.328125 C 93.667969 191.328125 93.46875 190.890625 93.46875 190.253906 C 93.46875 189.078125 94.171875 187 94.675781 185.753906 C 95.71875 185.621094 96.558594 183.707031 96.558594 182.902344 C 96.558594 182.53125 96.359375 182.128906 96.019531 182.128906 C 95.28125 182.128906 94.542969 183.238281 93.871094 184.449219 C 93.941406 184.011719 94.003906 183.574219 94.003906 183.207031 Z M 92.933594 186.027344 C 92.097656 187.269531 88.839844 192.070312 87.734375 192.070312 C 87.53125 192.070312 87.429688 191.871094 87.429688 191.601562 C 87.429688 189.71875 91.257812 182.703125 92.933594 182.703125 C 93.203125 182.703125 93.40625 183.039062 93.40625 183.742188 C 93.40625 184.246094 93.136719 185.355469 92.933594 186.027344 Z M 92.933594 186.027344 " fill-opacity="1" fill-rule="nonzero"/></svg>