<svg xmlns="http://www.w3.org/2000/svg" xmlns:xlink="http://www.w3.org/1999/xlink" width="500" zoomAndPan="magnify" viewBox="0 0 375 374.999991" height="500" preserveAspectRatio="xMidYMid meet" version="1.0"><rect x="-37.5" width="450" fill="#1e1e1e" y="-37.499999" height="449.999989" fill-opacity="1"/><path fill="#ffff00" d="M 158.472656 253.835938 L 177.644531 253.835938 L 177.644531 256.910156 L 158.472656 256.910156 Z M 158.472656 253.835938 " fill-opacity="1" fill-rule="nonzero"/><path fill="#006bcb" d="M 177.644531 253.835938 L 196.816406 253.835938 L 196.816406 256.910156 L 177.644531 256.910156 Z M 177.644531 253.835938 " fill-opacity="1" fill-rule="nonzero"/><path fill="#ff0000" d="M 196.816406 253.835938 L 215.984375 253.835938 L 215.984375 256.910156 L 196.816406 256.910156 Z M 196.816406 253.835938 " fill-opacity="1" fill-rule="nonzero"/><path fill="#ffffff" d="M 47.753906 217.480469 C 56.5 217.480469 64.382812 212.996094 67.855469 206.777344 L 67.78125 206.703125 C 66.410156 207.355469 63.875 207.644531 61.851562 207.644531 C 46.449219 207.644531 31.402344 192.53125 31.402344 174.089844 C 31.402344 168.300781 33.863281 165.839844 37.042969 165.839844 C 42.179688 165.839844 47.960938 170.6875 58.953125 192.167969 L 59.027344 192.167969 L 65.394531 166.929688 C 60.117188 164.179688 53.898438 162.519531 46.449219 162.519531 C 30.609375 162.519531 20.195312 172.71875 20.195312 188.265625 C 20.195312 205.332031 31.113281 217.484375 47.746094 217.484375 Z M 47.753906 217.480469 " fill-opacity="1" fill-rule="nonzero"/><path fill="#ffffff" d="M 96.5 162.515625 L 92.734375 162.515625 L 69.734375 214.871094 L 66.769531 214.871094 L 66.769531 216.027344 L 82.753906 216.027344 L 82.753906 214.871094 L 75.304688 214.871094 L 79.714844 201.277344 L 96.347656 201.277344 L 102.058594 214.871094 L 96.128906 214.871094 L 96.128906 216.027344 L 122.746094 216.027344 L 122.746094 214.871094 L 119.417969 214.871094 L 96.492188 162.515625 Z M 80.082031 199.980469 L 86.878906 179.003906 L 95.773438 199.980469 Z M 80.082031 199.980469 " fill-opacity="1" fill-rule="nonzero"/><path fill="#ffffff" d="M 147.382812 196.578125 C 164.742188 196.4375 174.503906 190.210938 174.503906 179.515625 C 174.503906 170.546875 166.335938 163.964844 148.542969 163.964844 L 125.039062 163.964844 L 131.472656 167.871094 L 131.472656 214.875 L 125.683594 214.875 L 125.683594 216.035156 L 153.886719 216.035156 L 153.886719 214.875 L 147.378906 214.875 L 147.378906 196.578125 Z M 147.382812 165.121094 L 148.179688 165.121094 C 153.960938 165.121094 157.867188 170.109375 157.867188 179.585938 C 157.867188 189.066406 153.671875 195.351562 147.378906 195.425781 L 147.378906 165.125 Z M 147.382812 165.121094 " fill-opacity="1" fill-rule="nonzero"/><path fill="#ffffff" d="M 202.308594 163.964844 L 173.527344 163.964844 L 179.960938 167.863281 L 179.960938 214.871094 L 174.179688 214.871094 L 174.179688 216.035156 L 201.65625 216.035156 L 201.65625 214.871094 L 195.875 214.871094 L 195.875 167.863281 Z M 202.308594 163.964844 " fill-opacity="1" fill-rule="nonzero"/><path fill="#ffffff" d="M 257.855469 184.355469 L 257.929688 184.355469 L 257.929688 163.964844 L 205.933594 163.964844 L 205.933594 184.355469 L 206.007812 184.355469 C 211.433594 171.917969 217.503906 165.988281 223.945312 165.191406 L 223.945312 214.871094 L 217.4375 214.871094 L 217.4375 216.027344 L 246.367188 216.027344 L 246.367188 214.871094 L 239.855469 214.871094 L 239.855469 165.1875 C 246.367188 165.988281 252.441406 171.914062 257.867188 184.355469 Z M 257.855469 184.355469 " fill-opacity="1" fill-rule="nonzero"/><path fill="#ffffff" d="M 265.859375 214.871094 L 258.410156 214.871094 L 262.820312 201.277344 L 279.453125 201.277344 L 285.164062 214.871094 L 279.234375 214.871094 L 279.234375 216.027344 L 305.851562 216.027344 L 305.851562 214.871094 L 302.523438 214.871094 L 279.597656 162.515625 L 275.835938 162.515625 L 252.835938 214.871094 L 249.871094 214.871094 L 249.871094 216.027344 L 265.851562 216.027344 L 265.851562 214.871094 Z M 269.980469 179.003906 L 278.875 199.980469 L 263.183594 199.980469 Z M 269.980469 179.003906 " fill-opacity="1" fill-rule="nonzero"/><path fill="#ffffff" d="M 331.761719 214.871094 L 331.183594 214.871094 L 331.183594 167.863281 L 337.617188 163.960938 L 308.835938 163.960938 L 315.273438 167.863281 L 315.273438 214.871094 L 309.488281 214.871094 L 309.488281 216.027344 L 354.257812 216.027344 L 354.257812 194.042969 L 354.183594 194.042969 C 348.683594 207.925781 340.65625 214.871094 331.761719 214.871094 Z M 331.761719 214.871094 " fill-opacity="1" fill-rule="nonzero"/><path fill="#ffffff" d="M 165.015625 269.289062 L 168.96875 269.289062 L 168.96875 268.386719 L 165.015625 268.386719 L 165.015625 266.066406 L 169.34375 266.066406 L 169.34375 265.09375 L 163.902344 265.09375 L 163.902344 272.828125 L 169.496094 272.828125 L 169.496094 271.855469 L 165.015625 271.855469 Z M 165.015625 269.289062 " fill-opacity="1" fill-rule="nonzero"/><path fill="#ffffff" d="M 175.425781 268.734375 C 175.167969 268.628906 174.804688 268.515625 174.339844 268.40625 L 173.089844 268.128906 C 172.597656 268.023438 172.238281 267.875 172.023438 267.699219 C 171.808594 267.519531 171.699219 267.289062 171.699219 267.003906 C 171.699219 266.660156 171.851562 266.394531 172.15625 266.195312 C 172.460938 265.996094 172.871094 265.894531 173.390625 265.894531 C 174.558594 265.894531 175.199219 266.425781 175.3125 267.480469 L 176.4375 267.480469 C 176.3125 266.609375 176.011719 265.960938 175.53125 265.546875 C 175.046875 265.132812 174.363281 264.921875 173.46875 264.921875 C 173.027344 264.921875 172.628906 264.972656 172.269531 265.078125 C 171.914062 265.183594 171.609375 265.332031 171.359375 265.519531 C 171.113281 265.710938 170.917969 265.941406 170.789062 266.214844 C 170.65625 266.488281 170.589844 266.792969 170.589844 267.136719 C 170.589844 267.660156 170.75 268.082031 171.082031 268.402344 C 171.410156 268.722656 171.929688 268.96875 172.644531 269.136719 L 174.382812 269.554688 C 175.203125 269.753906 175.613281 270.140625 175.613281 270.710938 C 175.613281 270.902344 175.566406 271.078125 175.476562 271.242188 C 175.382812 271.402344 175.25 271.539062 175.082031 271.65625 C 174.914062 271.769531 174.710938 271.859375 174.476562 271.929688 C 174.246094 271.992188 173.988281 272.027344 173.710938 272.027344 C 173.039062 272.027344 172.507812 271.867188 172.125 271.535156 C 171.734375 271.203125 171.511719 270.730469 171.449219 270.117188 L 170.304688 270.117188 C 170.386719 271.050781 170.71875 271.765625 171.296875 272.261719 C 171.875 272.753906 172.667969 273 173.679688 273 C 174.152344 273 174.574219 272.949219 174.953125 272.839844 C 175.324219 272.734375 175.644531 272.574219 175.90625 272.371094 C 176.171875 272.164062 176.375 271.914062 176.519531 271.625 C 176.660156 271.328125 176.726562 271.003906 176.726562 270.640625 C 176.726562 270.019531 176.519531 269.527344 176.101562 269.160156 C 175.917969 268.992188 175.691406 268.847656 175.433594 268.738281 Z M 175.425781 268.734375 " fill-opacity="1" fill-rule="nonzero"/><path fill="#ffffff" d="M 177.3125 266.066406 L 179.71875 266.066406 L 179.71875 272.828125 L 180.832031 272.828125 L 180.832031 266.066406 L 183.246094 266.066406 L 183.246094 265.09375 L 177.3125 265.09375 Z M 177.3125 266.066406 " fill-opacity="1" fill-rule="nonzero"/><path fill="#ffffff" d="M 183.476562 271.671875 L 184.671875 271.671875 L 184.671875 272.832031 L 183.476562 272.832031 Z M 183.476562 271.671875 " fill-opacity="1" fill-rule="nonzero"/><path fill="#ffffff" d="M 189.007812 270.230469 C 189.292969 270.046875 189.523438 269.894531 189.691406 269.785156 C 189.859375 269.675781 190 269.574219 190.117188 269.496094 C 190.226562 269.417969 190.324219 269.34375 190.390625 269.273438 C 190.460938 269.207031 190.53125 269.136719 190.613281 269.058594 C 191.070312 268.582031 191.292969 268.007812 191.292969 267.34375 C 191.292969 267 191.238281 266.675781 191.121094 266.394531 C 191.003906 266.109375 190.835938 265.863281 190.621094 265.65625 C 190.40625 265.453125 190.148438 265.296875 189.84375 265.179688 C 189.542969 265.070312 189.207031 265.011719 188.84375 265.011719 C 188.429688 265.011719 188.054688 265.078125 187.730469 265.210938 C 187.40625 265.34375 187.132812 265.542969 186.90625 265.808594 C 186.710938 266.027344 186.574219 266.277344 186.488281 266.558594 C 186.40625 266.835938 186.363281 267.171875 186.363281 267.566406 L 186.363281 267.855469 L 187.394531 267.855469 C 187.394531 267.570312 187.398438 267.359375 187.410156 267.222656 C 187.421875 267.085938 187.445312 266.964844 187.484375 266.863281 C 187.582031 266.589844 187.746094 266.378906 187.976562 266.226562 C 188.203125 266.074219 188.484375 265.996094 188.808594 265.996094 C 189.230469 265.996094 189.566406 266.121094 189.824219 266.378906 C 190.082031 266.628906 190.210938 266.964844 190.210938 267.371094 C 190.210938 267.554688 190.191406 267.722656 190.148438 267.871094 C 190.105469 268.019531 190.027344 268.160156 189.917969 268.300781 C 189.808594 268.4375 189.65625 268.585938 189.472656 268.738281 C 189.285156 268.890625 189.050781 269.058594 188.761719 269.242188 C 188.28125 269.542969 187.871094 269.832031 187.535156 270.109375 C 187.199219 270.390625 186.925781 270.667969 186.714844 270.957031 C 186.507812 271.242188 186.359375 271.535156 186.265625 271.824219 C 186.167969 272.117188 186.128906 272.433594 186.128906 272.777344 L 186.128906 272.84375 L 191.195312 272.84375 L 191.195312 271.882812 L 187.414062 271.882812 C 187.484375 271.65625 187.667969 271.398438 187.960938 271.097656 C 188.257812 270.800781 188.601562 270.515625 189.007812 270.246094 Z M 189.007812 270.230469 " fill-opacity="1" fill-rule="nonzero"/><path fill="#ffffff" d="M 197.324219 266.289062 C 197.097656 265.878906 196.804688 265.5625 196.4375 265.34375 C 196.066406 265.121094 195.65625 265.011719 195.199219 265.011719 C 194.742188 265.011719 194.355469 265.121094 193.980469 265.347656 C 193.609375 265.574219 193.3125 265.882812 193.085938 266.289062 C 192.902344 266.628906 192.765625 267.019531 192.675781 267.457031 C 192.589844 267.890625 192.546875 268.402344 192.546875 268.992188 C 192.546875 269.578125 192.589844 270.101562 192.675781 270.527344 C 192.765625 270.957031 192.902344 271.34375 193.085938 271.703125 C 193.3125 272.101562 193.609375 272.417969 193.980469 272.644531 C 194.355469 272.871094 194.757812 272.980469 195.199219 272.980469 C 195.640625 272.980469 196.058594 272.871094 196.429688 272.644531 C 196.804688 272.417969 197.097656 272.109375 197.324219 271.703125 C 197.6875 271.03125 197.871094 270.148438 197.871094 269.046875 C 197.871094 268.429688 197.828125 267.902344 197.746094 267.472656 C 197.660156 267.039062 197.519531 266.644531 197.324219 266.289062 Z M 196.710938 270.226562 C 196.65625 270.558594 196.574219 270.855469 196.46875 271.113281 C 196.351562 271.382812 196.183594 271.597656 195.957031 271.761719 C 195.730469 271.925781 195.484375 272.003906 195.214844 272.003906 C 194.949219 272.003906 194.695312 271.925781 194.476562 271.761719 C 194.25 271.597656 194.074219 271.382812 193.953125 271.113281 C 193.84375 270.851562 193.765625 270.550781 193.714844 270.214844 C 193.660156 269.878906 193.632812 269.46875 193.632812 268.992188 C 193.632812 268.511719 193.660156 268.105469 193.714844 267.769531 C 193.765625 267.433594 193.851562 267.140625 193.953125 266.878906 C 194.074219 266.597656 194.25 266.382812 194.46875 266.226562 C 194.691406 266.066406 194.9375 265.988281 195.207031 265.988281 C 195.472656 265.988281 195.722656 266.066406 195.945312 266.226562 C 196.171875 266.382812 196.347656 266.597656 196.46875 266.878906 C 196.582031 267.128906 196.667969 267.429688 196.714844 267.769531 C 196.765625 268.113281 196.789062 268.535156 196.789062 269.039062 C 196.789062 269.5 196.761719 269.894531 196.710938 270.226562 Z M 196.710938 270.226562 " fill-opacity="1" fill-rule="nonzero"/><path fill="#ffffff" d="M 201.996094 270.230469 C 202.28125 270.046875 202.511719 269.894531 202.679688 269.785156 C 202.847656 269.675781 202.992188 269.574219 203.105469 269.496094 C 203.21875 269.417969 203.3125 269.34375 203.378906 269.273438 C 203.449219 269.207031 203.523438 269.136719 203.601562 269.058594 C 204.058594 268.582031 204.285156 268.007812 204.285156 267.34375 C 204.285156 267 204.226562 266.675781 204.109375 266.394531 C 203.996094 266.109375 203.828125 265.863281 203.613281 265.65625 C 203.394531 265.453125 203.136719 265.296875 202.832031 265.179688 C 202.535156 265.070312 202.199219 265.011719 201.835938 265.011719 C 201.417969 265.011719 201.046875 265.078125 200.71875 265.210938 C 200.394531 265.34375 200.121094 265.542969 199.894531 265.808594 C 199.699219 266.027344 199.5625 266.277344 199.480469 266.558594 C 199.394531 266.835938 199.351562 267.171875 199.351562 267.566406 L 199.351562 267.855469 L 200.382812 267.855469 C 200.382812 267.570312 200.390625 267.359375 200.398438 267.222656 C 200.410156 267.085938 200.4375 266.964844 200.472656 266.863281 C 200.574219 266.589844 200.734375 266.378906 200.96875 266.226562 C 201.195312 266.074219 201.472656 265.996094 201.796875 265.996094 C 202.21875 265.996094 202.554688 266.121094 202.8125 266.378906 C 203.070312 266.628906 203.203125 266.964844 203.203125 267.371094 C 203.203125 267.554688 203.179688 267.722656 203.136719 267.871094 C 203.097656 268.019531 203.015625 268.160156 202.90625 268.300781 C 202.796875 268.4375 202.644531 268.585938 202.460938 268.738281 C 202.277344 268.890625 202.039062 269.058594 201.75 269.242188 C 201.273438 269.542969 200.863281 269.832031 200.527344 270.109375 C 200.1875 270.390625 199.917969 270.667969 199.707031 270.957031 C 199.496094 271.242188 199.347656 271.535156 199.253906 271.824219 C 199.160156 272.117188 199.117188 272.433594 199.117188 272.777344 L 199.117188 272.84375 L 204.183594 272.84375 L 204.183594 271.882812 L 200.40625 271.882812 C 200.472656 271.65625 200.65625 271.398438 200.953125 271.097656 C 201.246094 270.800781 201.59375 270.515625 201.996094 270.246094 Z M 201.996094 270.230469 " fill-opacity="1" fill-rule="nonzero"/><path fill="#ffffff" d="M 209.503906 268.773438 C 209.894531 268.574219 210.171875 268.339844 210.351562 268.070312 C 210.53125 267.800781 210.617188 267.480469 210.617188 267.101562 C 210.617188 266.804688 210.5625 266.519531 210.445312 266.265625 C 210.328125 266.015625 210.167969 265.792969 209.960938 265.605469 C 209.757812 265.421875 209.515625 265.273438 209.230469 265.167969 C 208.945312 265.0625 208.640625 265.011719 208.3125 265.011719 C 207.558594 265.011719 206.964844 265.238281 206.527344 265.695312 C 206.09375 266.152344 205.871094 266.765625 205.871094 267.539062 L 206.882812 267.539062 C 206.875 267.050781 206.992188 266.671875 207.234375 266.398438 C 207.476562 266.125 207.816406 265.988281 208.257812 265.988281 C 208.632812 265.988281 208.9375 266.097656 209.171875 266.316406 C 209.414062 266.53125 209.53125 266.8125 209.53125 267.160156 C 209.53125 267.535156 209.390625 267.835938 209.101562 268.058594 C 208.816406 268.285156 208.4375 268.402344 207.976562 268.402344 L 207.886719 268.402344 C 207.847656 268.402344 207.8125 268.402344 207.765625 268.390625 L 207.765625 269.257812 L 208.007812 269.257812 C 208.527344 269.257812 208.941406 269.390625 209.261719 269.652344 C 209.582031 269.914062 209.746094 270.257812 209.746094 270.683594 C 209.746094 271.066406 209.605469 271.386719 209.324219 271.632812 C 209.046875 271.886719 208.691406 272.007812 208.25 272.007812 C 207.757812 272.007812 207.363281 271.851562 207.058594 271.539062 C 206.753906 271.226562 206.59375 270.808594 206.566406 270.285156 L 205.546875 270.285156 C 205.546875 270.679688 205.613281 271.039062 205.75 271.371094 C 205.886719 271.703125 206.070312 271.988281 206.3125 272.230469 C 206.554688 272.464844 206.839844 272.648438 207.171875 272.785156 C 207.5 272.917969 207.871094 272.984375 208.273438 272.984375 C 208.648438 272.984375 208.984375 272.929688 209.292969 272.8125 C 209.605469 272.695312 209.871094 272.539062 210.097656 272.339844 C 210.324219 272.140625 210.503906 271.898438 210.632812 271.613281 C 210.761719 271.328125 210.824219 271.023438 210.824219 270.695312 C 210.824219 269.851562 210.378906 269.214844 209.488281 268.78125 Z M 209.503906 268.773438 " fill-opacity="1" fill-rule="nonzero"/><path fill="#ffffff" d="M 140.242188 233.191406 C 139.902344 232.664062 139.4375 232.273438 138.832031 232.003906 C 138.226562 231.734375 137.601562 231.59375 136.945312 231.578125 C 136.359375 231.5625 135.808594 231.660156 135.289062 231.871094 C 134.761719 232.082031 134.351562 232.414062 134.046875 232.867188 C 133.785156 233.226562 133.617188 233.652344 133.53125 234.144531 C 133.449219 234.632812 133.421875 235.089844 133.433594 235.527344 L 133.433594 242.894531 C 133.417969 243.316406 133.453125 243.773438 133.53125 244.269531 C 133.613281 244.761719 133.785156 245.183594 134.046875 245.535156 C 134.367188 246.003906 134.804688 246.339844 135.355469 246.550781 C 135.910156 246.757812 136.492188 246.847656 137.101562 246.824219 C 137.742188 246.796875 138.34375 246.648438 138.910156 246.386719 C 139.476562 246.125 139.921875 245.738281 140.242188 245.230469 C 140.441406 244.910156 140.582031 244.578125 140.667969 244.234375 C 140.746094 243.894531 140.789062 243.542969 140.789062 243.179688 L 140.789062 242.066406 C 140.804688 241.746094 140.699219 241.496094 140.472656 241.324219 C 140.246094 241.152344 139.992188 241.054688 139.71875 241.039062 C 139.441406 241.023438 139.1875 241.101562 138.957031 241.269531 C 138.726562 241.441406 138.609375 241.703125 138.609375 242.066406 L 138.589844 243.132812 C 138.589844 243.601562 138.4375 243.953125 138.132812 244.1875 C 137.828125 244.429688 137.496094 244.5625 137.128906 244.59375 C 136.792969 244.625 136.53125 244.59375 136.335938 244.492188 C 136.140625 244.398438 135.988281 244.273438 135.878906 244.109375 C 135.765625 243.953125 135.695312 243.757812 135.65625 243.53125 C 135.621094 243.304688 135.605469 243.0625 135.605469 242.800781 C 135.589844 242.191406 135.582031 241.570312 135.582031 240.945312 L 135.582031 237.050781 C 135.582031 236.386719 135.589844 235.726562 135.605469 235.050781 C 135.605469 234.617188 135.761719 234.289062 136.082031 234.070312 C 136.402344 233.847656 136.75 233.757812 137.128906 233.785156 C 137.492188 233.8125 137.828125 233.949219 138.132812 234.191406 C 138.4375 234.433594 138.601562 234.785156 138.617188 235.246094 L 138.617188 236.3125 C 138.617188 236.691406 138.730469 236.964844 138.964844 237.132812 C 139.195312 237.300781 139.453125 237.375 139.726562 237.359375 C 140 237.34375 140.25 237.25 140.476562 237.066406 C 140.703125 236.886719 140.808594 236.636719 140.792969 236.3125 L 140.792969 235.199219 C 140.792969 234.835938 140.75 234.484375 140.671875 234.144531 C 140.59375 233.800781 140.449219 233.476562 140.246094 233.171875 Z M 140.242188 233.191406 " fill-opacity="1" fill-rule="nonzero"/><path fill="#ffffff" d="M 152.734375 240.78125 L 150.878906 232.929688 C 150.808594 232.507812 150.644531 232.183594 150.390625 231.945312 C 150.140625 231.714844 149.855469 231.589844 149.550781 231.574219 C 149.246094 231.558594 148.945312 231.660156 148.65625 231.886719 C 148.363281 232.113281 148.15625 232.464844 148.027344 232.945312 L 145.039062 245.570312 C 144.964844 245.917969 145.007812 246.203125 145.171875 246.414062 C 145.328125 246.621094 145.527344 246.757812 145.769531 246.816406 C 146.011719 246.875 146.25 246.855469 146.492188 246.753906 C 146.734375 246.648438 146.886719 246.453125 146.957031 246.164062 L 147.347656 244.855469 C 147.453125 244.503906 147.609375 244.285156 147.828125 244.179688 C 148.046875 244.074219 148.261719 244.03125 148.484375 244.046875 L 150.664062 244.046875 C 150.953125 244.03125 151.179688 244.117188 151.335938 244.300781 C 151.5 244.484375 151.601562 244.6875 151.644531 244.917969 L 151.835938 245.945312 C 151.894531 246.308594 152.046875 246.558594 152.292969 246.695312 C 152.542969 246.832031 152.792969 246.878906 153.046875 246.828125 C 153.296875 246.773438 153.515625 246.648438 153.691406 246.445312 C 153.867188 246.246094 153.925781 245.988281 153.867188 245.683594 L 152.734375 240.773438 Z M 150.664062 241.445312 C 150.589844 241.613281 150.421875 241.695312 150.160156 241.695312 L 148.917969 241.695312 C 148.65625 241.695312 148.488281 241.617188 148.40625 241.457031 C 148.324219 241.296875 148.304688 241.113281 148.351562 240.910156 C 148.46875 240.339844 148.578125 239.773438 148.679688 239.207031 C 148.777344 238.636719 148.886719 238.066406 149.003906 237.480469 C 149.050781 237.308594 149.121094 237.179688 149.222656 237.097656 C 149.328125 237.019531 149.425781 236.988281 149.519531 236.996094 C 149.613281 237.011719 149.703125 237.0625 149.792969 237.140625 C 149.875 237.21875 149.933594 237.335938 149.964844 237.476562 L 150.707031 240.898438 C 150.75 241.085938 150.734375 241.265625 150.664062 241.433594 Z M 150.664062 241.445312 " fill-opacity="1" fill-rule="nonzero"/><path fill="#ffffff" d="M 164.96875 246.78125 C 165.242188 246.855469 165.503906 246.832031 165.742188 246.726562 C 165.984375 246.617188 166.160156 246.433594 166.289062 246.171875 C 166.414062 245.90625 166.394531 245.617188 166.234375 245.296875 L 164.882812 242.203125 C 164.753906 241.96875 164.667969 241.75 164.632812 241.542969 C 164.59375 241.339844 164.59375 241.152344 164.632812 240.964844 C 164.667969 240.789062 164.722656 240.621094 164.796875 240.46875 C 164.867188 240.316406 164.949219 240.171875 165.035156 240.042969 C 165.257812 239.703125 165.441406 239.394531 165.59375 239.117188 C 165.746094 238.835938 165.871094 238.542969 165.96875 238.253906 C 166.0625 237.964844 166.128906 237.660156 166.171875 237.339844 C 166.214844 237.019531 166.230469 236.652344 166.214844 236.226562 C 166.199219 235.640625 166.113281 235.074219 165.960938 234.511719 C 165.808594 233.953125 165.59375 233.453125 165.316406 233.019531 C 165.035156 232.582031 164.707031 232.230469 164.3125 231.960938 C 163.917969 231.695312 163.476562 231.558594 162.980469 231.558594 L 159.796875 231.558594 C 159.648438 231.539062 159.5 231.566406 159.347656 231.636719 C 159.195312 231.699219 159.054688 231.792969 158.921875 231.910156 C 158.792969 232.023438 158.679688 232.171875 158.597656 232.34375 C 158.507812 232.519531 158.464844 232.707031 158.464844 232.914062 L 158.464844 239.214844 L 158.488281 245.691406 C 158.488281 246.070312 158.597656 246.355469 158.8125 246.542969 C 159.027344 246.734375 159.269531 246.828125 159.53125 246.828125 C 159.796875 246.828125 160.03125 246.738281 160.253906 246.554688 C 160.472656 246.375 160.578125 246.101562 160.578125 245.734375 L 160.578125 242.417969 C 160.578125 242.128906 160.648438 241.898438 160.785156 241.730469 C 160.921875 241.558594 161.089844 241.460938 161.289062 241.421875 C 161.484375 241.386719 161.679688 241.417969 161.867188 241.511719 C 162.054688 241.609375 162.207031 241.769531 162.324219 242.003906 L 164.304688 246.164062 C 164.46875 246.5 164.683594 246.707031 164.964844 246.773438 Z M 164.105469 237.128906 C 164.039062 237.4375 163.9375 237.722656 163.800781 237.96875 C 163.664062 238.21875 163.492188 238.417969 163.292969 238.570312 C 163.085938 238.722656 162.851562 238.796875 162.570312 238.796875 L 161.679688 238.796875 C 161.371094 238.828125 161.117188 238.730469 160.90625 238.523438 C 160.695312 238.3125 160.589844 238.066406 160.589844 237.792969 L 160.589844 234.695312 C 160.605469 234.359375 160.722656 234.101562 160.941406 233.921875 C 161.15625 233.738281 161.390625 233.648438 161.640625 233.648438 L 162.3125 233.648438 C 162.617188 233.648438 162.886719 233.722656 163.125 233.863281 C 163.355469 234.011719 163.550781 234.199219 163.703125 234.433594 C 163.855469 234.664062 163.96875 234.929688 164.046875 235.226562 C 164.128906 235.527344 164.175781 235.835938 164.191406 236.152344 C 164.199219 236.488281 164.179688 236.808594 164.113281 237.125 Z M 164.105469 237.128906 " fill-opacity="1" fill-rule="nonzero"/><path fill="#ffffff" d="M 178.285156 246.539062 C 178.4375 246.363281 178.515625 246.101562 178.515625 245.75 L 178.515625 232.6875 C 178.515625 232.324219 178.40625 232.050781 178.191406 231.867188 C 177.96875 231.683594 177.730469 231.59375 177.46875 231.59375 C 177.207031 231.59375 176.964844 231.6875 176.738281 231.878906 C 176.511719 232.066406 176.402344 232.34375 176.402344 232.703125 L 176.402344 239.359375 C 176.402344 239.398438 176.382812 239.441406 176.351562 239.488281 C 176.3125 239.535156 176.269531 239.566406 176.21875 239.589844 C 176.164062 239.609375 176.109375 239.609375 176.042969 239.589844 C 175.976562 239.566406 175.917969 239.503906 175.859375 239.40625 C 175.65625 238.878906 175.433594 238.316406 175.199219 237.710938 C 174.957031 237.109375 174.714844 236.492188 174.46875 235.855469 C 174.21875 235.226562 173.972656 234.605469 173.726562 234 C 173.480469 233.398438 173.253906 232.835938 173.046875 232.308594 C 172.933594 232.003906 172.757812 231.792969 172.523438 231.675781 C 172.292969 231.5625 172.054688 231.523438 171.824219 231.566406 C 171.59375 231.609375 171.390625 231.730469 171.222656 231.917969 C 171.054688 232.109375 170.972656 232.359375 170.972656 232.683594 L 170.972656 245.722656 C 170.972656 246.101562 171.082031 246.386719 171.308594 246.574219 C 171.535156 246.765625 171.777344 246.859375 172.039062 246.859375 C 172.300781 246.859375 172.539062 246.765625 172.757812 246.574219 C 172.980469 246.386719 173.085938 246.109375 173.085938 245.746094 L 173.085938 239.550781 C 173.085938 239.496094 173.105469 239.429688 173.136719 239.367188 C 173.175781 239.304688 173.222656 239.257812 173.28125 239.238281 C 173.335938 239.214844 173.402344 239.222656 173.464844 239.257812 C 173.53125 239.292969 173.585938 239.378906 173.625 239.511719 L 176.589844 246.054688 C 176.707031 246.328125 176.875 246.535156 177.097656 246.664062 C 177.316406 246.796875 177.527344 246.847656 177.738281 246.828125 C 177.949219 246.808594 178.132812 246.707031 178.285156 246.535156 Z M 178.285156 246.539062 " fill-opacity="1" fill-rule="nonzero"/><path fill="#ffffff" d="M 184.238281 231.535156 C 183.972656 231.535156 183.726562 231.625 183.507812 231.808594 C 183.289062 231.992188 183.183594 232.273438 183.183594 232.648438 L 183.183594 245.691406 C 183.183594 246.070312 183.292969 246.355469 183.507812 246.542969 C 183.730469 246.734375 183.972656 246.828125 184.238281 246.828125 C 184.507812 246.828125 184.753906 246.734375 184.972656 246.542969 C 185.1875 246.355469 185.296875 246.074219 185.296875 245.714844 L 185.296875 232.628906 C 185.296875 232.265625 185.1875 231.992188 184.972656 231.808594 C 184.753906 231.625 184.507812 231.535156 184.238281 231.535156 Z M 184.238281 231.535156 " fill-opacity="1" fill-rule="nonzero"/><path fill="#ffffff" d="M 195.484375 246.386719 C 196.050781 246.125 196.492188 245.738281 196.816406 245.230469 C 197.015625 244.910156 197.15625 244.578125 197.242188 244.234375 C 197.320312 243.894531 197.359375 243.542969 197.359375 243.179688 L 197.359375 242.066406 C 197.378906 241.746094 197.273438 241.496094 197.046875 241.324219 C 196.820312 241.152344 196.566406 241.054688 196.292969 241.039062 C 196.019531 241.023438 195.761719 241.101562 195.53125 241.269531 C 195.300781 241.441406 195.183594 241.703125 195.183594 242.066406 L 195.164062 243.132812 C 195.164062 243.601562 195.011719 243.953125 194.707031 244.1875 C 194.402344 244.429688 194.070312 244.5625 193.703125 244.59375 C 193.367188 244.625 193.101562 244.59375 192.910156 244.492188 C 192.714844 244.398438 192.5625 244.273438 192.453125 244.109375 C 192.339844 243.953125 192.265625 243.757812 192.230469 243.53125 C 192.195312 243.304688 192.179688 243.0625 192.179688 242.800781 C 192.164062 242.191406 192.15625 241.570312 192.15625 240.945312 L 192.15625 237.050781 C 192.15625 236.386719 192.164062 235.726562 192.179688 235.050781 C 192.179688 234.617188 192.335938 234.289062 192.65625 234.070312 C 192.976562 233.847656 193.324219 233.757812 193.703125 233.785156 C 194.066406 233.8125 194.402344 233.949219 194.707031 234.191406 C 195.011719 234.433594 195.175781 234.785156 195.191406 235.246094 L 195.191406 236.3125 C 195.191406 236.691406 195.304688 236.964844 195.535156 237.132812 C 195.769531 237.300781 196.027344 237.375 196.300781 237.359375 C 196.578125 237.34375 196.824219 237.25 197.050781 237.066406 C 197.277344 236.886719 197.382812 236.636719 197.367188 236.3125 L 197.367188 235.199219 C 197.367188 234.835938 197.324219 234.484375 197.246094 234.144531 C 197.167969 233.800781 197.023438 233.476562 196.820312 233.171875 C 196.484375 232.644531 196.015625 232.25 195.410156 231.984375 C 194.804688 231.714844 194.179688 231.574219 193.523438 231.558594 C 192.941406 231.542969 192.386719 231.640625 191.867188 231.851562 C 191.34375 232.0625 190.933594 232.394531 190.628906 232.84375 C 190.363281 233.207031 190.195312 233.632812 190.113281 234.121094 C 190.03125 234.609375 190 235.070312 190.011719 235.503906 L 190.011719 242.875 C 189.996094 243.296875 190.03125 243.753906 190.113281 244.246094 C 190.191406 244.742188 190.363281 245.160156 190.628906 245.515625 C 190.949219 245.980469 191.382812 246.316406 191.9375 246.527344 C 192.488281 246.738281 193.070312 246.828125 193.679688 246.800781 C 194.324219 246.777344 194.921875 246.628906 195.488281 246.367188 Z M 195.484375 246.386719 " fill-opacity="1" fill-rule="nonzero"/><path fill="#ffffff" d="M 204.335938 233.878906 C 204.558594 233.726562 204.792969 233.648438 205.058594 233.648438 L 207.347656 233.648438 C 207.652344 233.632812 207.890625 233.511719 208.046875 233.292969 C 208.210938 233.066406 208.289062 232.824219 208.289062 232.5625 C 208.289062 232.296875 208.214844 232.0625 208.0625 231.851562 C 207.910156 231.640625 207.675781 231.535156 207.355469 231.535156 L 203.234375 231.535156 C 202.855469 231.519531 202.539062 231.59375 202.296875 231.75 C 202.050781 231.910156 201.925781 232.238281 201.925781 232.734375 C 201.910156 233.722656 201.902344 234.710938 201.902344 235.699219 L 201.902344 245.273438 C 201.902344 245.460938 201.914062 245.644531 201.933594 245.828125 C 201.957031 246.011719 202.011719 246.175781 202.097656 246.316406 C 202.183594 246.464844 202.316406 246.582031 202.488281 246.664062 C 202.660156 246.753906 202.902344 246.796875 203.207031 246.796875 L 207.328125 246.796875 C 207.648438 246.78125 207.890625 246.660156 208.046875 246.4375 C 208.210938 246.210938 208.289062 245.972656 208.289062 245.707031 C 208.289062 245.445312 208.214844 245.207031 208.0625 245 C 207.910156 244.789062 207.675781 244.683594 207.355469 244.683594 L 205 244.683594 C 204.578125 244.683594 204.3125 244.558594 204.195312 244.300781 C 204.078125 244.046875 204.023438 243.777344 204.023438 243.503906 C 204.023438 243.085938 204.027344 242.675781 204.042969 242.277344 C 204.058594 241.875 204.046875 241.472656 204.023438 241.066406 C 204.003906 240.734375 204.074219 240.492188 204.226562 240.355469 C 204.378906 240.21875 204.558594 240.144531 204.761719 240.144531 L 206.570312 240.144531 C 206.875 240.144531 207.105469 240.035156 207.269531 239.808594 C 207.433594 239.582031 207.511719 239.34375 207.511719 239.078125 C 207.511719 238.816406 207.433594 238.578125 207.269531 238.371094 C 207.105469 238.160156 206.871094 238.054688 206.550781 238.054688 L 204.804688 238.054688 C 204.53125 238.070312 204.328125 237.980469 204.195312 237.792969 C 204.0625 237.601562 204.007812 237.359375 204.023438 237.070312 L 204.023438 234.605469 C 204.023438 234.269531 204.132812 234.027344 204.347656 233.875 Z M 204.335938 233.878906 " fill-opacity="1" fill-rule="nonzero"/><path fill="#ffffff" d="M 219.28125 242.203125 C 219.152344 241.96875 219.066406 241.75 219.03125 241.542969 C 218.992188 241.339844 218.992188 241.152344 219.03125 240.964844 C 219.066406 240.789062 219.121094 240.621094 219.191406 240.46875 C 219.265625 240.316406 219.34375 240.171875 219.433594 240.042969 C 219.65625 239.703125 219.839844 239.394531 219.992188 239.117188 C 220.144531 238.835938 220.269531 238.542969 220.363281 238.253906 C 220.460938 237.964844 220.527344 237.660156 220.570312 237.339844 C 220.613281 237.019531 220.628906 236.652344 220.613281 236.226562 C 220.597656 235.640625 220.511719 235.074219 220.359375 234.511719 C 220.207031 233.953125 219.992188 233.453125 219.714844 233.019531 C 219.433594 232.582031 219.101562 232.230469 218.710938 231.960938 C 218.316406 231.695312 217.875 231.558594 217.378906 231.558594 L 214.195312 231.558594 C 214.046875 231.539062 213.898438 231.566406 213.746094 231.636719 C 213.59375 231.699219 213.453125 231.792969 213.320312 231.910156 C 213.191406 232.023438 213.078125 232.171875 212.996094 232.34375 C 212.910156 232.519531 212.863281 232.707031 212.863281 232.914062 L 212.863281 239.214844 L 212.882812 245.691406 C 212.882812 246.070312 212.996094 246.355469 213.210938 246.542969 C 213.429688 246.734375 213.667969 246.828125 213.929688 246.828125 C 214.195312 246.828125 214.429688 246.738281 214.652344 246.554688 C 214.871094 246.375 214.976562 246.101562 214.976562 245.734375 L 214.976562 242.417969 C 214.976562 242.128906 215.046875 241.898438 215.183594 241.730469 C 215.320312 241.558594 215.488281 241.460938 215.6875 241.421875 C 215.882812 241.386719 216.074219 241.417969 216.265625 241.511719 C 216.453125 241.609375 216.605469 241.769531 216.722656 242.003906 L 218.703125 246.164062 C 218.867188 246.5 219.082031 246.707031 219.359375 246.773438 C 219.632812 246.847656 219.898438 246.828125 220.132812 246.722656 C 220.375 246.613281 220.554688 246.429688 220.679688 246.164062 C 220.804688 245.902344 220.785156 245.613281 220.628906 245.292969 L 219.277344 242.195312 Z M 218.507812 237.128906 C 218.441406 237.4375 218.339844 237.722656 218.203125 237.96875 C 218.066406 238.21875 217.894531 238.417969 217.695312 238.570312 C 217.488281 238.722656 217.253906 238.796875 216.972656 238.796875 L 216.082031 238.796875 C 215.777344 238.828125 215.519531 238.730469 215.308594 238.523438 C 215.097656 238.3125 214.992188 238.066406 214.992188 237.792969 L 214.992188 234.695312 C 215.007812 234.359375 215.125 234.101562 215.34375 233.921875 C 215.558594 233.738281 215.792969 233.648438 216.042969 233.648438 L 216.71875 233.648438 C 217.023438 233.648438 217.289062 233.722656 217.527344 233.863281 C 217.757812 234.011719 217.953125 234.199219 218.105469 234.433594 C 218.257812 234.664062 218.371094 234.929688 218.453125 235.226562 C 218.53125 235.527344 218.578125 235.835938 218.59375 236.152344 C 218.605469 236.488281 218.582031 236.808594 218.515625 237.125 Z M 218.507812 237.128906 " fill-opacity="1" fill-rule="nonzero"/><path fill="#ffffff" d="M 227.886719 227.09375 C 227.703125 226.957031 227.492188 226.890625 227.257812 226.890625 C 227.019531 226.890625 226.808594 227.015625 226.636719 227.261719 L 225.480469 228.765625 C 225.316406 228.96875 225.28125 229.179688 225.359375 229.394531 C 225.4375 229.613281 225.574219 229.789062 225.765625 229.933594 C 225.953125 230.070312 226.167969 230.136719 226.40625 230.136719 C 226.640625 230.136719 226.851562 230.015625 227.027344 229.765625 L 228.160156 228.261719 C 228.308594 228.054688 228.34375 227.84375 228.269531 227.628906 C 228.199219 227.414062 228.070312 227.234375 227.886719 227.09375 Z M 227.886719 227.09375 " fill-opacity="1" fill-rule="nonzero"/><path fill="#ffffff" d="M 226.378906 231.535156 C 226.109375 231.535156 225.863281 231.625 225.648438 231.808594 C 225.425781 231.992188 225.320312 232.273438 225.320312 232.648438 L 225.320312 245.691406 C 225.320312 246.070312 225.433594 246.355469 225.648438 246.542969 C 225.867188 246.734375 226.109375 246.828125 226.378906 246.828125 C 226.648438 246.828125 226.894531 246.734375 227.109375 246.542969 C 227.324219 246.355469 227.433594 246.074219 227.433594 245.714844 L 227.433594 232.628906 C 227.433594 232.265625 227.324219 231.992188 227.109375 231.808594 C 226.894531 231.625 226.648438 231.535156 226.378906 231.535156 Z M 226.378906 231.535156 " fill-opacity="1" fill-rule="nonzero"/><path fill="#ffffff" d="M 239.867188 240.78125 L 238.011719 232.929688 C 237.9375 232.507812 237.777344 232.183594 237.523438 231.945312 C 237.269531 231.714844 236.988281 231.589844 236.683594 231.574219 C 236.378906 231.558594 236.078125 231.660156 235.789062 231.886719 C 235.496094 232.113281 235.289062 232.464844 235.15625 232.945312 L 232.171875 245.570312 C 232.097656 245.917969 232.140625 246.203125 232.304688 246.414062 C 232.460938 246.621094 232.660156 246.757812 232.902344 246.816406 C 233.144531 246.875 233.382812 246.855469 233.621094 246.753906 C 233.863281 246.648438 234.015625 246.453125 234.089844 246.164062 L 234.480469 244.855469 C 234.585938 244.503906 234.742188 244.285156 234.957031 244.179688 C 235.179688 244.074219 235.394531 244.03125 235.613281 244.046875 L 237.796875 244.046875 C 238.085938 244.03125 238.3125 244.117188 238.46875 244.300781 C 238.632812 244.484375 238.730469 244.6875 238.773438 244.917969 L 238.96875 245.945312 C 239.027344 246.308594 239.179688 246.558594 239.425781 246.695312 C 239.671875 246.832031 239.925781 246.878906 240.179688 246.828125 C 240.429688 246.773438 240.644531 246.648438 240.824219 246.445312 C 241 246.246094 241.054688 245.988281 241 245.683594 L 239.863281 240.773438 Z M 237.796875 241.445312 C 237.722656 241.613281 237.554688 241.695312 237.292969 241.695312 L 236.050781 241.695312 C 235.789062 241.695312 235.621094 241.617188 235.535156 241.457031 C 235.457031 241.296875 235.4375 241.113281 235.484375 240.910156 C 235.597656 240.339844 235.710938 239.773438 235.808594 239.207031 C 235.910156 238.636719 236.019531 238.066406 236.136719 237.480469 C 236.183594 237.308594 236.25 237.179688 236.355469 237.097656 C 236.460938 237.019531 236.554688 236.988281 236.652344 236.996094 C 236.746094 237.011719 236.835938 237.0625 236.925781 237.140625 C 237.007812 237.21875 237.066406 237.335938 237.097656 237.476562 L 237.839844 240.898438 C 237.878906 241.085938 237.863281 241.265625 237.796875 241.433594 Z M 237.796875 241.445312 " fill-opacity="1" fill-rule="nonzero"/><path fill="#ffffff" d="M 23.824219 235.773438 L 20.195312 239.398438 L 23.824219 243.027344 L 26.941406 239.914062 L 121.535156 239.914062 L 121.535156 238.890625 L 26.941406 238.890625 Z M 23.824219 235.773438 " fill-opacity="1" fill-rule="nonzero"/><path fill="#ffffff" d="M 347.464844 238.890625 L 253.394531 238.890625 L 253.394531 239.914062 L 347.464844 239.914062 L 350.578125 243.027344 L 354.203125 239.398438 L 350.578125 235.773438 Z M 347.464844 238.890625 " fill-opacity="1" fill-rule="nonzero"/><path fill="#ffffff" d="M 27.101562 141.433594 L 152.476562 141.433594 L 152.476562 140.402344 L 27.101562 140.402344 L 23.992188 137.292969 L 20.894531 140.917969 L 23.992188 144.546875 Z M 27.101562 141.433594 " fill-opacity="1" fill-rule="nonzero"/><path fill="#ffffff" d="M 350.746094 144.546875 L 354.371094 140.917969 L 350.746094 137.292969 L 347.628906 140.402344 L 222.789062 140.402344 L 222.789062 141.429688 L 347.628906 141.429688 Z M 350.746094 144.546875 " fill-opacity="1" fill-rule="nonzero"/><path fill="#ffffff" d="M 164.242188 146.917969 C 181.605469 141.816406 186.496094 159.378906 201.964844 159.378906 C 210.722656 159.378906 212.9375 154.183594 213.242188 152.089844 C 213.378906 151.144531 213.121094 150.550781 212.332031 150.726562 C 211.742188 150.863281 211.863281 151.179688 211.125 152.390625 C 206.839844 159.378906 198.386719 154.617188 189.707031 149.78125 C 182.5 145.761719 178.730469 143.480469 171.632812 143.753906 C 176.855469 141.117188 180.285156 134.742188 182.417969 129.417969 C 190.539062 124.703125 195.285156 118.898438 198.070312 114.941406 C 200.953125 110.84375 202.890625 105.582031 200.941406 103.195312 C 199.617188 101.578125 193.761719 98.238281 186.195312 110.871094 C 184.367188 113.929688 183.652344 115.894531 180.175781 124.011719 C 179.167969 126.484375 178.425781 128.234375 178.328125 128.332031 C 178.175781 128.535156 169.464844 129.316406 172.671875 122.046875 C 173.351562 120.5 174.332031 119.277344 175.59375 117.863281 C 176.953125 116.453125 177 116.347656 177 115.644531 C 177 114.734375 176.246094 114.03125 175.339844 114.03125 C 173.878906 114.03125 171.207031 116.851562 169.648438 119.828125 C 166.183594 126.410156 169.230469 131.074219 177.496094 130.472656 C 177.027344 132.117188 170.839844 143.5 165.375 143.5 C 164.113281 143.5 162.445312 142.667969 162.070312 144.332031 C 161.792969 145.558594 162.066406 147.554688 164.242188 146.917969 Z M 189.203125 111.769531 C 193.277344 103.132812 197.796875 103.011719 198.992188 103.488281 C 201.394531 104.445312 200.089844 108.695312 198.980469 110.914062 C 197.417969 114.140625 191.027344 122.742188 183.398438 127.09375 C 184.152344 125.351562 187.035156 116.371094 189.207031 111.769531 Z M 189.203125 111.769531 " fill-opacity="1" fill-rule="nonzero"/><path fill="#ffffff" d="M 200.0625 130.179688 C 200.0625 129.167969 199.660156 127.609375 197.945312 127.609375 C 192.804688 127.609375 186.804688 137.332031 186.804688 142.476562 C 186.804688 143.988281 187.5625 146.101562 189.929688 146.101562 C 191.742188 146.101562 194.515625 142.371094 196.476562 139.148438 C 196.074219 140.308594 195.773438 141.464844 195.773438 142.726562 C 195.773438 143.882812 196.378906 145.953125 198.445312 145.953125 C 201.773438 145.953125 205.804688 137.839844 207.3125 134.664062 L 207.3125 134.511719 C 207.3125 134.3125 207.160156 134.105469 206.960938 134.105469 C 206.808594 134.105469 206.707031 134.207031 206.609375 134.304688 C 205.246094 136.472656 202.171875 142.371094 200.308594 142.371094 C 199.554688 142.371094 199.253906 141.710938 199.253906 140.753906 C 199.253906 138.988281 200.308594 135.867188 201.066406 134 C 202.628906 133.800781 203.890625 130.925781 203.890625 129.714844 C 203.890625 129.164062 203.585938 128.558594 203.085938 128.558594 C 201.976562 128.558594 200.867188 130.222656 199.859375 132.039062 C 199.957031 131.382812 200.058594 130.730469 200.058594 130.171875 Z M 198.449219 134.410156 C 197.1875 136.277344 192.300781 143.484375 190.636719 143.484375 C 190.332031 143.484375 190.1875 143.183594 190.1875 142.78125 C 190.1875 139.957031 195.929688 129.421875 198.449219 129.421875 C 198.855469 129.421875 199.152344 129.925781 199.152344 130.984375 C 199.152344 131.742188 198.75 133.402344 198.449219 134.410156 Z M 198.449219 134.410156 " fill-opacity="1" fill-rule="nonzero"/></svg>